<?xml version="1.0" standalone="no"?>
<!DOCTYPE svg PUBLIC "-//W3C//DTD SVG 20010904//EN"
 "http://www.w3.org/TR/2001/REC-SVG-20010904/DTD/svg10.dtd">
<svg version="1.0" xmlns="http://www.w3.org/2000/svg"
 width="640.000000pt" height="640.000000pt" viewBox="0 0 640.000000 640.000000"
 preserveAspectRatio="xMidYMid meet">
<metadata>
Created by potrace 1.14, written by Peter Selinger 2001-2017
</metadata>
<g transform="translate(0.000000,640.000000) scale(0.100000,-0.100000)"
fill="#000000" stroke="none">
<path d="M0 3200 l0 -3200 3200 0 3200 0 0 3200 0 3200 -3200 0 -3200 0 0
-3200z m2628 1064 c335 -69 573 -303 646 -636 l6 -28 -129 0 -129 0 -6 34
c-13 66 -77 177 -140 241 -108 110 -255 166 -436 167 -189 1 -324 -53 -451
-181 -168 -168 -239 -393 -226 -713 7 -178 30 -278 97 -415 41 -83 64 -116
123 -175 318 -321 887 -215 1024 192 l22 65 117 3 c65 1 121 -1 126 -6 12 -12
-28 -144 -68 -226 -78 -161 -198 -282 -359 -361 -138 -68 -239 -90 -415 -89
-177 2 -257 20 -410 95 -94 47 -116 63 -205 153 -138 140 -208 266 -260 471
-45 177 -55 360 -30 548 62 469 325 781 725 862 93 19 285 18 378 -1z m1312
-939 l0 -935 488 -2 487 -3 3 -112 3 -113 -616 0 -615 0 0 1050 0 1050 125 0
125 0 0 -935z"/>
</g>
</svg>
